<?xml version="1.0" encoding="utf-8"?>
<!-- Generator: Adobe Illustrator 18.0.0, SVG Export Plug-In . SVG Version: 6.00 Build 0)  -->
<!DOCTYPE svg PUBLIC "-//W3C//DTD SVG 1.1//EN" "http://www.w3.org/Graphics/SVG/1.1/DTD/svg11.dtd">
<svg version="1.1" id="Layer_1" xmlns="http://www.w3.org/2000/svg" xmlns:xlink="http://www.w3.org/1999/xlink" x="0px" y="0px"
	 viewBox="0 0 573.6 71.8" enable-background="new 0 0 573.6 71.8" xml:space="preserve">
<g>
	<polygon fill="#FFFFFF" points="2.3,4.9 2.3,7.5 8.8,14.9 8.8,65.3 0,67.8 0,70.7 23.9,70.7 23.9,67.8 16.4,65.8 14.5,63.4 
		14.5,21.3 56.4,71.2 60.1,71.2 60.1,11.2 69,8.6 69,5.4 44.7,5.4 44.7,9 52.4,10.9 54.3,13.2 54.3,53.1 54.3,53.1 53.8,53.1 
		13.1,4.9 	"/>
	<path fill="#FFFFFF" d="M92.1,71.8c-11.8,0-23.2-7.6-23.2-23.8c0-16.1,12-24.2,23.2-24.2c11.6,0,23.4,7.3,23.4,23.4
		C115.5,62.7,103,71.8,92.1,71.8z M106.3,48.6c0-11-6-20.4-15.5-20.4c-8.5,0-12.7,7.4-12.7,18.4c0,11,5.3,20.7,15.3,20.7
		C101.8,67.4,106.3,59.7,106.3,48.6z"/>
	<path fill="#FFFFFF" d="M234.5,43.9c0-11-6.2-13.2-13.4-13.2c-6.1,0-10.1,4.5-10.1,4.5l0,7.3v21.1l1.9,2.4l6.4,2.2l0,2.5h-23v-2.6
		l6.5-2.5l0-47.6c0-8.6-2.2-11-6.9-11V4.9L210.6,0h1c0,0-0.5,10.2-0.5,17.8v13.7c0,0,9.5-7.6,16-7.6c8.1,0,15.6,3.4,15.6,15.3
		l0,24.5l1.9,2.4l6.4,2.2l0,2.5h-23v-2.6l6.3-2.4L234.5,43.9z"/>
	<path fill="#FFFFFF" d="M327.7,45.4c0,13.7,7.8,19.4,16.7,19.4c5.5,0,12.1-2.3,12.1-2.3l1,1.9c-2.4,2.4-9,7.4-17.3,7.4
		C329,71.8,319,63.4,319,48c0-14,9.7-24.2,21.7-24.2c9.4,0,16.7,5.6,16.7,16.3c0,2.8-0.5,5.2-0.5,5.2H327.7z M342.2,41.6
		c4.7-0.2,6.4-1.1,6.4-5.9c0-4.1-3-7.3-9.3-7.3c-6.6,0-11.6,5.8-11.6,13.7L342.2,41.6z"/>
	<path fill="#FFFFFF" d="M368.2,70c-0.7-0.3-2.5-1.3-2.6-3.4l-0.6-9.4h4.3c1.2,6.4,5.5,10.6,11.1,10.6c5.7,0,8-3,8-6.9
		c0-3.8-3.1-5.7-6.8-7.7l-5-2.6c-7.2-3.7-10.8-6.6-10.8-13.7c0-8.9,6.4-13.1,16.4-13.1c7,0,12.4,2.7,12.4,2.7l-1.3,11.5h-4
		c0-7.2-3-9.9-9-9.9c-4,0-7.8,1.6-7.8,5.5c0,3.2,1.3,4.5,9.1,8.6l4.4,2.3c8.1,4.1,10.4,7.6,10.4,14.3c0,8.1-8.1,12.9-16,12.9
		C375.5,71.8,371,71.2,368.2,70z"/>
	<path fill="#FFFFFF" d="M445.7,45.4c0,13.7,7.8,19.4,16.7,19.4c5.5,0,12.1-2.3,12.1-2.3l1,1.9c-2.4,2.4-9,7.4-17.3,7.4
		C447,71.8,437,63.4,437,48c0-14,9.7-24.2,21.7-24.2c9.4,0,16.7,5.6,16.7,16.3c0,2.8-0.5,5.2-0.5,5.2H445.7z M460.2,41.6
		c4.7-0.2,6.4-1.1,6.4-5.9c0-4.1-3-7.3-9.3-7.3c-6.6,0-11.6,5.8-11.6,13.7L460.2,41.6z"/>
	<path fill="#FFFFFF" d="M567.2,66l-1.9-2.4l0.1-25c0-11.5-7.5-14.8-15.2-14.8c-6.5,0-15.7,7.6-15.7,7.6c0-4.1,0.2-7.9,0.2-7.9h-0.8
		l-14.4,5.2v2.4c5.5,0,7,4.9,7,13.8v20.7l-6.5,2.5v2.6h22.7l0.2-2.5l-6.4-2.2l-1.9-2.4l0-28.3c0,0,3.5-4.6,9.7-4.6
		c6.4,0,13,2.3,13,13.2L557,65.8l-6.3,2.4v2.6h22.7l0.2-2.5L567.2,66z"/>
	<path fill="#FFFFFF" d="M293.4,71.2l-10.6-29.3l-12.1,29.3h-4.1L254.6,35c-1.7-4.5-2.6-7.2-5.8-7.2v-2.8h19.5v2.8l-5.9,1.9l8.9,30
		l7.8-18.7l1.8-4.8l-2.7-7.6l-3.4-0.8v-2.8h18.8v3l-5.9,1.8l10,30L308.1,30l-6.7-2.4v-2.6h17.7v2.8c-4,0.5-6,1.6-9.2,9.7L298,71.2
		H293.4z"/>
	<path fill="#FFFFFF" d="M190.9,63.9c0,0-2.8,1.8-6.9,1.8c-4.4,0-8.5-2.5-8.4-8.6l0.4-25.8h14.6v0h0.1l0.2-1.6h0l1-8.1l-1.9-0.3
		l-1.4,3.1l-0.8,0.7l-11.6,0.5v0l-0.1,0V13.7l-5.7,1l-2.5,11.1l-8.1,0.8v3.8c4.4,0,8.1,0.4,8.1,4.6c0,4.2-0.4,17.6-0.4,22.9
		c0,10.1,3.8,13.8,10.3,13.8c5.5,0,10.1-2.3,14.2-5.6L190.9,63.9z"/>
	<path fill="#FFFFFF" d="M432.4,63.9c0,0-2.8,1.8-6.9,1.8c-4.4,0-8.5-2.5-8.4-8.6l0.4-25.8h14.6v0h0l0.2-1.6h0l1-8.1l-1.9-0.3
		l-1.4,3.1l-0.8,0.7l-11.6,0.5v0l0,0V13.7l-5.7,1l-2.5,11.1l-8.1,0.8v3.8c4.4,0,8.1,0.4,8.1,4.6c0,4.2-0.4,17.6-0.4,22.9
		c0,10.1,3.8,13.8,10.3,13.8c5.5,0,10.1-2.3,14.2-5.6L432.4,63.9z"/>
	<path fill="#FFFFFF" d="M154.2,24.5L154.2,24.5L154.2,24.5c-0.1,0-1.7-0.6-4.9-0.6c-6.9,0-14.1,10.9-14.1,10.9
		c0-6,0.2-11.1,0.2-11.1h-0.8l-14.1,5.2v2.4c5.3,0,7,4.8,7,13v21.5l-6.5,2.5v2.6h22.7l0-2.5l-6.4-2.2l-1.9-2.4V42.5
		c0-6.5,5.1-10.2,10.7-10.2c1.1,0,2.3,0.3,3.3,0.6l1.5,2.3l1.9,0.2L154.2,24.5L154.2,24.5L154.2,24.5z"/>
	<path fill="#FFFFFF" d="M515,24.5L515,24.5L515,24.5c-0.1,0-1.7-0.6-4.9-0.6c-6.9,0-14.1,10.9-14.1,10.9c0-6,0.2-11.1,0.2-11.1
		h-0.8l-14.1,5.2v2.4c5.3,0,7,4.8,7,13v21.5l-6.5,2.5v2.6h22.7l0-2.5l-6.4-2.2l-1.9-2.4V42.5c0-6.5,5.1-10.2,10.7-10.2
		c1.1,0,2.3,0.3,3.3,0.6l1.5,2.3l1.9,0.2L515,24.5L515,24.5L515,24.5z"/>
</g>
</svg>
